<svg width="87" height="97" viewBox="0 0 87 97" fill="none" xmlns="http://www.w3.org/2000/svg">
<path d="M87 24.5C87 48.5244 47.9721 84.5 24.5 84.5C1.02788 84.5 0 72.5244 0 48.5C0 24.4756 36.0279 0 59.5 0C82.9721 0 87 0.475613 87 24.5Z" fill="#7D574A"/>
<path d="M31.08 71.668C30.7813 72.6067 29.7787 73.076 28.072 73.076C26.408 73.076 24.744 72.5 23.08 71.348C24.4027 67.764 27.0267 61.812 30.952 53.492C34.92 45.1293 37.5653 38.9 38.888 34.804C39.016 34.292 39.08 33.8653 39.08 33.524C39.08 33.14 38.9307 32.628 38.632 31.988C38.3333 31.348 38.0133 30.836 37.672 30.452L37.224 29.876L37.48 28.596C41.2773 27.572 45.7787 27.06 50.984 27.06L55.912 27.316C56.3387 27.7 56.7653 28.7027 57.192 30.324C57.6187 31.9453 57.896 34.3773 58.024 37.62C58.152 40.8627 58.2373 46.9427 58.28 55.86C58.3227 62.7293 59.176 66.164 60.84 66.164C61.2667 66.164 62.184 65.9507 63.592 65.524L64.232 65.332L65.576 68.98C63.8267 70.3027 61.7787 71.348 59.432 72.116C57.0853 72.884 54.9733 73.268 53.096 73.268C50.3653 73.268 48.488 72.436 47.464 70.772C46.4827 69.0653 45.992 66.8893 45.992 64.244C45.992 61.556 46.0133 59.7 46.056 58.676C45.2453 58.5053 43.6667 58.42 41.32 58.42C38.9733 58.42 36.9467 58.6547 35.24 59.124C33.6613 63.348 32.2747 67.5293 31.08 71.668ZM46.312 53.3C46.5253 49.588 46.632 45.8547 46.632 42.1C46.632 38.3453 46.4187 35.6147 45.992 33.908C45.5653 33.908 45.2667 33.9507 45.096 34.036C44.1573 36.8947 41.64 43.316 37.544 53.3H46.312Z" fill="white"/>
<path d="M36.0799 71.668C35.7813 72.6067 34.7786 73.076 33.0719 73.076C31.4079 73.076 29.7439 72.5 28.0799 71.348C29.4026 67.764 32.0266 61.812 35.9519 53.492C39.9199 45.1293 42.5653 38.9 43.8879 34.804C44.0159 34.292 44.0799 33.8653 44.0799 33.524C44.0799 33.14 43.9306 32.628 43.6319 31.988C43.3333 31.348 43.0133 30.836 42.6719 30.452L42.2239 29.876L42.4799 28.596C46.2773 27.572 50.7786 27.06 55.9839 27.06L60.9119 27.316C61.3386 27.7 61.7653 28.7027 62.1919 30.324C62.6186 31.9453 62.8959 34.3773 63.0239 37.62C63.1519 40.8627 63.2373 46.9427 63.2799 55.86C63.3226 62.7293 64.1759 66.164 65.8399 66.164C66.2666 66.164 67.1839 65.9507 68.5919 65.524L69.2319 65.332L70.5759 68.98C68.8266 70.3027 66.7786 71.348 64.4319 72.116C62.0853 72.884 59.9733 73.268 58.0959 73.268C55.3653 73.268 53.4879 72.436 52.4639 70.772C51.4826 69.0653 50.9919 66.8893 50.9919 64.244C50.9919 61.556 51.0133 59.7 51.0559 58.676C50.2453 58.5053 48.6666 58.42 46.3199 58.42C43.9733 58.42 41.9466 58.6547 40.2399 59.124C38.6613 63.348 37.2746 67.5293 36.0799 71.668ZM51.3119 53.3C51.5253 49.588 51.6319 45.8547 51.6319 42.1C51.6319 38.3453 51.4186 35.6147 50.9919 33.908C50.5653 33.908 50.2666 33.9507 50.0959 34.036C49.1573 36.8947 46.6399 43.316 42.5439 53.3H51.3119Z" fill="#B08212"/>
</svg>
